#include "shared.h"
#include "music_data.h"
#include "notes.h"
// ===== 멜로디 데이터 (기존과 동일) =====
int song0[]   = { NOTE_E5,NOTE_E5,NOTE_F5,NOTE_G5, NOTE_G5,NOTE_F5,NOTE_E5,NOTE_D5, NOTE_C5,NOTE_C5,NOTE_D5,NOTE_E5, NOTE_E5,NOTE_D5,NOTE_D5, REST, NOTE_E5,NOTE_E5,NOTE_F5,NOTE_G5, NOTE_G5,NOTE_F5,NOTE_E5,NOTE_D5, NOTE_C5,NOTE_C5,NOTE_D5,NOTE_E5, NOTE_D5,NOTE_C5,NOTE_C5, REST };
int slot0[]   = { 300,300,300,300, 300,300,300,300, 300,300,300,300, 450,150,500, 200, 300,300,300,300, 300,300,300,300, 300,300,300,300, 450,150,500, 200 };
int len0 = 32;

int song1[]   = { NOTE_G5,NOTE_E5,NOTE_E5, NOTE_F5,NOTE_D5,NOTE_D5, NOTE_C5,NOTE_D5,NOTE_E5,NOTE_F5,NOTE_G5,NOTE_G5,NOTE_G5, NOTE_G5,NOTE_E5,NOTE_E5, NOTE_F5,NOTE_D5,NOTE_D5, NOTE_C5,NOTE_E5,NOTE_G5,NOTE_G5,NOTE_E5, REST };
int slot1[]   = { 300,300,400, 300,300,400, 300,300,300,300,300,300,500, 300,300,400, 300,300,400, 300,300,300,300,500, 300 };
int len1 = 25;

int song2[]   = { NOTE_C5,NOTE_C5,NOTE_G5,NOTE_G5,NOTE_A5,NOTE_A5,NOTE_G5, NOTE_F5,NOTE_F5,NOTE_E5,NOTE_E5,NOTE_D5,NOTE_D5,NOTE_C5, REST };
int slot2[]   = { 300,300,300,300,300,300,500, 300,300,300,300,300,300,500, 300 };
int len2 = 15;